# xmcd CD database file
#
# Track frame offsets:
#	150
#	24718
#	46755
#	67603
#	87555
#	103193
#	127273
#	146650
#	168628
#	184523
#	207250
#	223345
#	247990
#
# Disc length: 3638 seconds
#
# Revision: 2
# Processed by: cddbd v1.5.1PL0 Copyright (c) Steve Scherf et al.
# Submitted via: CDex 1.51
#
DISCID=c10e340d
DTITLE=THE COLLECTORS - BEAT SYMPHONIC
DYEAR=1999
DGENRE=Rock
TTITLE0=World -theme from teenage gangsters-
TTITLE1=百億のキッスと千億の誓い
TTITLE2=Brand☆New☆Heaven
TTITLE3=夜の向こう側
TTITLE4=センチメンタル・スウィート・ハートエイク
TTITLE5=6 or 9
TTITLE6=Cash&Model Gun(album mix)
TTITLE7=Butterfly Kiss
TTITLE8=Pychedelic Heartbreak
TTITLE9=SNOWMAN
TTITLE10=Stay Cool! Stay Hip! Stay Young!
TTITLE11=Quiet Happy...
TTITLE12=螺旋のラウンドアバウト
EXTD=YEAR: 1999
EXTT0=
EXTT1=
EXTT2=
EXTT3=
EXTT4=
EXTT5=
EXTT6=
EXTT7=
EXTT8=
EXTT9=
EXTT10=
EXTT11=
EXTT12=
PLAYORDER=
